<?xml version="1.0" encoding="UTF-8"?>
<svg id="Vrstva_1" data-name="Vrstva 1" xmlns="http://www.w3.org/2000/svg" viewBox="0 0 292.49 192.43">
  <defs>
    <style>
      .cls-1 {
        fill:rgba(255, 255, 255, 0);
      }

      .cls-2 {
        fill: #E72C35;
      }

      .cls-3 {
        fill: #fff;
      }
    </style>
  </defs>
  <rect class="cls-1" width="292.49" height="192.43"/>
  <path class="cls-3" d="M201.93,79.34c1.26-.5,2.64-.88,4.11-1.16-5.05-8-11.25-15.84-18.59-23.18-34.12-34.12-79.16-44.4-100.59-22.97-8.41,8.41-11.92,20.46-11.04,34.05h.92c-.18-11.29,3.1-21.25,10.21-28.36,19.66-19.66,61.05-10.14,92.45,21.26,7.2,7.2,13.23,14.93,18.04,22.8,1.41-1,2.92-1.82,4.49-2.45Z"/>
  <path class="cls-3" d="M60.04,92.84c-2.18-2.66-4.86-3.98-8.06-3.98-1.41,0-2.71.26-3.91.77-1.2.51-2.23,1.21-3.1,2.09-.86.88-1.54,1.93-2.04,3.14-.5,1.22-.74,2.53-.74,3.94s.25,2.77.74,3.98c.5,1.22,1.18,2.27,2.06,3.17.88.9,1.91,1.6,3.1,2.11,1.18.51,2.46.77,3.84.77,3.01,0,5.71-1.28,8.11-3.84v11.14l-.96.34c-1.44.51-2.78.89-4.03,1.13-1.25.24-2.48.36-3.7.36-2.5,0-4.89-.47-7.18-1.42-2.29-.94-4.3-2.27-6.05-3.98-1.74-1.71-3.14-3.74-4.2-6.1-1.06-2.35-1.58-4.92-1.58-7.7s.52-5.33,1.56-7.66c1.04-2.32,2.43-4.32,4.18-6,1.74-1.68,3.77-2.99,6.07-3.94,2.3-.94,4.72-1.42,7.25-1.42,1.44,0,2.86.15,4.25.46,1.39.3,2.86.78,4.39,1.42v11.23Z"/>
  <path class="cls-3" d="M64.89,98.84c0-2.69.5-5.19,1.49-7.51.99-2.32,2.37-4.34,4.13-6.07,1.76-1.73,3.86-3.08,6.31-4.06,2.45-.98,5.14-1.46,8.09-1.46s5.6.49,8.06,1.46c2.46.98,4.58,2.33,6.36,4.06,1.78,1.73,3.16,3.75,4.15,6.07.99,2.32,1.49,4.82,1.49,7.51s-.5,5.19-1.49,7.51c-.99,2.32-2.38,4.34-4.15,6.07-1.78,1.73-3.9,3.08-6.36,4.06-2.46.98-5.15,1.46-8.06,1.46s-5.64-.49-8.09-1.46c-2.45-.98-4.55-2.33-6.31-4.06-1.76-1.73-3.14-3.75-4.13-6.07-.99-2.32-1.49-4.82-1.49-7.51ZM74.73,98.84c0,1.44.27,2.77.82,3.98.54,1.22,1.28,2.27,2.21,3.17.93.9,2.01,1.59,3.24,2.09,1.23.5,2.54.74,3.91.74s2.68-.25,3.91-.74c1.23-.5,2.32-1.19,3.26-2.09.94-.9,1.69-1.95,2.23-3.17.54-1.22.82-2.54.82-3.98s-.27-2.77-.82-3.98c-.54-1.22-1.29-2.27-2.23-3.17-.94-.9-2.03-1.59-3.26-2.09-1.23-.5-2.54-.74-3.91-.74s-2.68.25-3.91.74c-1.23.5-2.31,1.19-3.24,2.09-.93.9-1.66,1.95-2.21,3.17-.54,1.22-.82,2.54-.82,3.98Z"/>
  <path class="cls-3" d="M110.92,116.94v-36.19h9.41l17.38,22.13v-22.13h9.36v36.19h-9.36l-17.38-22.13v22.13h-9.41Z"/>
  <path class="cls-3" d="M154.64,80.75h13.92c2.46,0,4.78.5,6.94,1.49,2.16.99,4.05,2.31,5.66,3.96,1.62,1.65,2.89,3.57,3.82,5.76.93,2.19,1.39,4.49,1.39,6.89s-.46,4.65-1.37,6.84c-.91,2.19-2.18,4.12-3.79,5.78-1.62,1.67-3.5,2.99-5.66,3.98-2.16.99-4.49,1.49-6.98,1.49h-13.92v-36.19ZM164.05,108.97h2.16c1.63,0,3.09-.26,4.37-.77,1.28-.51,2.36-1.22,3.24-2.11.88-.9,1.55-1.96,2.02-3.19.46-1.23.7-2.58.7-4.06s-.24-2.78-.72-4.03-1.16-2.32-2.04-3.22c-.88-.89-1.96-1.6-3.24-2.11-1.28-.51-2.72-.77-4.32-.77h-2.16v20.26Z"/>
  <path class="cls-3" d="M266.87,116.94h-11.71l-8.98-13.92v13.92h-9.41v-36.19h14.64c2.02,0,3.78.3,5.28.89,1.5.59,2.74,1.4,3.72,2.42s1.71,2.21,2.21,3.55.74,2.78.74,4.32c0,2.75-.66,4.98-1.99,6.7-1.33,1.71-3.29,2.87-5.88,3.48l11.38,14.83ZM246.18,96.92h1.78c1.85,0,3.28-.38,4.27-1.15.99-.77,1.49-1.87,1.49-3.31s-.5-2.54-1.49-3.31c-.99-.77-2.42-1.15-4.27-1.15h-1.78v8.93Z"/>
  <path class="cls-3" d="M210.76,88.86c.26,0,.52.02.78.04-.26-.02-.51-.04-.78-.04Z"/>
  <path class="cls-2" d="M229.33,91.33c-.99-2.32-2.38-4.34-4.15-6.07-1.78-1.73-3.9-3.08-6.36-4.06-2.46-.98-5.15-1.46-8.06-1.46s-5.64.49-8.09,1.46c-2.45.98-4.55,2.33-6.31,4.06-1.76,1.73-3.14,3.75-4.13,6.07-.99,2.32-1.49,4.82-1.49,7.51s.5,5.19,1.49,7.51c.99,2.32,2.37,4.34,4.13,6.07,1.76,1.73,3.86,3.08,6.31,4.06,1.82.72,3.77,1.18,5.85,1.36-.31-2.83-.82-5.76-1.54-8.71-.09-.37-.19-.75-.29-1.13-1.17-.49-2.2-1.16-3.09-2.02-.93-.9-1.66-1.95-2.21-3.17-.54-1.22-.82-2.54-.82-3.98s.27-2.77.82-3.98c.11-.24.23-.47.35-.69.5-.93,1.11-1.76,1.86-2.48.93-.9,2.01-1.59,3.24-2.09,1.23-.5,2.54-.74,3.91-.74.26,0,.52.01.78.04,1.07.08,2.11.3,3.09.69.02,0,.03,0,.05.02,1.23.5,2.32,1.19,3.26,2.09.94.9,1.69,1.95,2.23,3.17.54,1.22.82,2.54.82,3.98s-.27,2.77-.82,3.98c-.06.14-.14.27-.2.4.16.53.34,1.05.5,1.58.94,3.25,1.67,6.49,2.19,9.65.91-.61,1.76-1.28,2.54-2.04,1.78-1.73,3.16-3.75,4.15-6.07.99-2.32,1.49-4.82,1.49-7.51s-.5-5.19-1.49-7.51Z"/>
  <path class="cls-3" d="M220.8,115.57c-.51-3.34-1.27-6.75-2.27-10.2-1.25-4.32-2.42-7.48-4.11-11.36-.23-.53-.47-1.09-.73-1.65-.21-.46-.41-.92-.63-1.41,0,0-.02,0-.03,0-.19-.02-.43-.04-.62-.05-.26-.02-.51-.04-.78-.04-1.38,0-2.76.09-3.99.59-1.31.51-2.26,1.28-3.18,2.18-.19.18-.36.37-.53.56,0,0,0,0,0,.01.87,2.05,1.58,3.81,2.21,5.48.06.16.12.33.18.49.06.17.12.34.19.52.92,2.55,1.66,4.97,2.4,8,.77,3.15,1.31,6.25,1.62,9.27,1.39,13.4-1.73,25.33-9.9,33.51-.52.52-1.06,1.01-1.61,1.49-.16.14-.33.28-.5.42-.41.34-.83.68-1.26,1-.17.13-.34.26-.52.39-.58.42-1.17.83-1.78,1.21-.01,0-.02.01-.03.02-.61.38-1.23.74-1.87,1.08-.19.1-.39.2-.59.3-.47.24-.96.48-1.44.7-.2.09-.4.19-.61.28-.66.29-1.32.56-2,.81-.02,0-.05.02-.07.03-.68.25-1.38.47-2.09.68-.22.07-.44.13-.66.19-.53.15-1.06.29-1.61.42-.22.05-.45.11-.67.16-.73.16-1.48.31-2.23.43-.01,0-.02,0-.04,0-.76.12-1.53.22-2.31.31-.23.03-.47.05-.7.07-.58.06-1.17.1-1.76.14-.24.01-.47.03-.71.04-.8.04-1.61.06-2.42.06,0,0,0,0,0,0h0s0,0-.01,0c-1.04,0-2.09-.04-3.15-.1-.33-.02-.67-.05-1.01-.07-.75-.05-1.5-.12-2.26-.2-.38-.04-.76-.09-1.15-.14-.76-.1-1.53-.21-2.3-.34-.35-.06-.69-.11-1.04-.17-1.1-.2-2.21-.42-3.32-.67-.02,0-.04,0-.06-.01-1.11-.25-2.22-.54-3.34-.85-.36-.1-.72-.21-1.09-.32-.79-.23-1.58-.47-2.37-.73-.41-.13-.81-.27-1.22-.41-.8-.27-1.59-.56-2.39-.86-.37-.14-.73-.27-1.1-.41-1.13-.44-2.27-.9-3.41-1.39-.04-.02-.08-.03-.12-.05-1.13-.49-2.27-1.02-3.4-1.57-.37-.18-.74-.37-1.11-.55-.8-.4-1.61-.81-2.41-1.23-.41-.22-.82-.44-1.23-.66-.8-.44-1.6-.89-2.4-1.35-.37-.21-.74-.42-1.1-.64-1.14-.68-2.28-1.38-3.42-2.11-.02-.01-.04-.02-.06-.04-1.14-.73-2.27-1.5-3.39-2.28-.36-.25-.71-.51-1.07-.76-.79-.56-1.58-1.14-2.37-1.73-.39-.3-.79-.59-1.18-.9-.78-.6-1.57-1.22-2.34-1.85-.35-.28-.7-.56-1.04-.84-1.11-.91-2.21-1.85-3.3-2.81h-1.08c.94.88,1.89,1.74,2.84,2.59.21.19.43.38.64.57.94.82,1.88,1.63,2.82,2.42.14.12.28.23.43.35.86.71,1.72,1.4,2.59,2.08.2.16.4.31.59.47.95.74,1.91,1.46,2.87,2.17.21.15.41.3.62.45.87.63,1.75,1.25,2.63,1.86.15.1.29.2.44.3.97.66,1.95,1.3,2.93,1.93.24.15.47.3.71.45.99.63,1.99,1.24,2.98,1.83.04.02.08.05.12.07.97.57,1.94,1.12,2.91,1.66.24.13.48.27.72.4.98.53,1.96,1.05,2.95,1.55.17.09.34.17.51.25.88.44,1.75.86,2.63,1.27.22.1.43.21.65.3.98.45,1.95.88,2.93,1.29.23.1.45.19.68.28.88.37,1.77.72,2.65,1.06.15.06.3.12.45.17.98.37,1.96.72,2.94,1.05.24.08.48.16.72.24.99.33,1.97.64,2.96.93.05.02.1.03.15.04.95.28,1.89.53,2.83.77.23.06.46.12.69.17.96.24,1.92.46,2.87.66.16.03.32.06.48.09.86.17,1.71.33,2.56.47.19.03.39.07.58.1.94.15,1.87.28,2.8.39.2.02.4.04.6.07.86.09,1.71.17,2.56.23.11,0,.23.02.34.03.92.06,1.83.1,2.74.12.21,0,.42,0,.62.01.8,0,1.6,0,2.39-.02.15,0,.29,0,.44,0,.9-.03,1.79-.09,2.67-.17.23-.02.46-.05.69-.07.68-.07,1.36-.15,2.03-.24.24-.03.48-.07.72-.1.86-.13,1.72-.28,2.56-.46.02,0,.04,0,.06-.01.82-.17,1.63-.38,2.42-.59.23-.06.45-.13.68-.19.64-.18,1.27-.38,1.89-.6.19-.06.38-.12.56-.19.78-.28,1.56-.58,2.31-.9.13-.06.26-.12.4-.18.63-.28,1.24-.57,1.85-.88.21-.11.42-.21.62-.32.61-.32,1.21-.66,1.79-1.02.12-.07.24-.14.35-.21.69-.43,1.36-.88,2.02-1.35.17-.12.33-.25.49-.37.5-.38,1-.77,1.48-1.17.18-.15.36-.3.54-.45.62-.54,1.22-1.09,1.81-1.67,9.63-9.63,12.84-24.02,10.38-40.04Z"/>
</svg>